<svg width="115" height="19" viewBox="0 0 115 19" fill="none" xmlns="http://www.w3.org/2000/svg">
<g clip-path="url(#clip0_15448_126378)">
<path d="M33.5619 2.25391H37.2671L41.1806 11.804H41.347L45.2605 2.25391H48.9657V16.467H46.0503V7.21633H45.9329L42.254 16.3987H40.2683L36.5894 7.18306H36.4721V16.4688H33.5566V2.25391H33.5619Z" fill="black"/>
<path d="M56.2061 16.6759C55.1099 16.6759 54.1661 16.4536 53.3782 16.007C52.5885 15.5605 51.9826 14.9267 51.5571 14.1054C51.1316 13.2842 50.918 12.3106 50.918 11.1864C50.918 10.0903 51.1298 9.12724 51.5571 8.299C51.9826 7.47076 52.5832 6.82463 53.3589 6.36235C54.1346 5.90008 55.0434 5.66895 56.0905 5.66895C56.7944 5.66895 57.4493 5.78101 58.0587 6.00514C58.6663 6.22928 59.1986 6.56547 59.6556 7.01549C60.1109 7.46375 60.4663 8.02759 60.7202 8.70524C60.9741 9.38289 61.102 10.1761 61.102 11.0814V11.8939H52.0999V10.0623H58.3178C58.3178 9.63679 58.225 9.26031 58.0394 8.93112C57.8538 8.60193 57.5982 8.34452 57.2725 8.15716C56.9468 7.9698 56.5686 7.877 56.1378 7.877C55.6895 7.877 55.292 7.98031 54.9471 8.18518C54.6021 8.3918 54.3325 8.66671 54.1381 9.01167C53.9438 9.35662 53.8439 9.7401 53.8404 10.1603V11.9026C53.8404 12.4297 53.9385 12.8867 54.1346 13.2702C54.3307 13.6537 54.6091 13.9496 54.9716 14.158C55.3323 14.3663 55.7596 14.4696 56.2551 14.4696C56.5843 14.4696 56.8837 14.4241 57.1569 14.3313C57.4301 14.2385 57.6629 14.1002 57.8573 13.9146C58.0517 13.7289 58.2005 13.5031 58.3021 13.2352L61.0372 13.4155C60.8989 14.0722 60.6152 14.6447 60.1879 15.1333C59.7607 15.6218 59.2091 16 58.5367 16.2714C57.8643 16.5429 57.0851 16.6759 56.2061 16.6759Z" fill="black"/>
<path d="M62.9004 16.4669V5.80664H65.7668V7.66623H65.8771C66.0715 7.00434 66.3972 6.50355 66.856 6.16385C67.3147 5.82415 67.8418 5.6543 68.4389 5.6543C68.5877 5.6543 68.7471 5.66305 68.9169 5.68231C69.0885 5.70157 69.2391 5.72609 69.3687 5.75936V8.38241C69.2304 8.34038 69.0378 8.30361 68.7926 8.27209C68.5475 8.24057 68.3233 8.22306 68.1202 8.22306C67.686 8.22306 67.2972 8.31762 66.9575 8.50498C66.6178 8.69234 66.3499 8.95324 66.1521 9.28594C65.9559 9.61863 65.8579 10.0039 65.8579 10.4381V16.4687H62.9004V16.4669Z" fill="black"/>
<path d="M72.0991 4.43412C71.6596 4.43412 71.2831 4.28704 70.9679 3.99286C70.6527 3.69869 70.4951 3.34673 70.4951 2.93524C70.4951 2.52725 70.6527 2.17704 70.9679 1.88462C71.2831 1.59045 71.6578 1.44336 72.0921 1.44336C72.5368 1.44336 72.915 1.59045 73.2267 1.88462C73.5384 2.17879 73.6943 2.529 73.6943 2.93524C73.6943 3.34673 73.5384 3.70044 73.2267 3.99286C72.9133 4.28704 72.5386 4.43412 72.0991 4.43412ZM70.6072 16.4672V5.80693H73.5629V16.4672H70.6072Z" fill="black"/>
<path d="M79.6651 16.6404C78.8561 16.6404 78.1224 16.4303 77.4693 16.0118C76.8144 15.5933 76.2961 14.9752 75.9144 14.1592C75.5327 13.3432 75.3418 12.3399 75.3418 11.1509C75.3418 9.92868 75.5379 8.91308 75.9319 8.1006C76.3259 7.28813 76.8494 6.68052 77.5043 6.27603C78.1592 5.87154 78.8771 5.66842 79.6598 5.66842C80.2569 5.66842 80.7542 5.76823 81.1552 5.9696C81.5562 6.17097 81.8784 6.42136 82.127 6.71904C82.3739 7.01672 82.5631 7.31089 82.6926 7.59631H82.7819V2.25391H85.7307V16.467H82.8152V14.7598H82.6909C82.5526 15.0557 82.3564 15.3481 82.1043 15.637C81.8521 15.926 81.5264 16.1659 81.1255 16.355C80.7262 16.5458 80.2377 16.6404 79.6651 16.6404ZM80.6019 14.2888C81.0782 14.2888 81.4827 14.1574 81.8136 13.8965C82.1446 13.6356 82.3985 13.2679 82.5771 12.7969C82.7557 12.3241 82.845 11.7725 82.845 11.1386C82.845 10.5048 82.7574 9.95495 82.5806 9.48742C82.4055 9.0199 82.1498 8.65918 81.8171 8.40528C81.4844 8.15138 81.0799 8.02356 80.6019 8.02356C80.1169 8.02356 79.7071 8.15489 79.3744 8.41929C79.0417 8.6837 78.7896 9.04791 78.618 9.51544C78.4464 9.98297 78.3606 10.524 78.3606 11.1386C78.3606 11.7585 78.4481 12.3066 78.6215 12.7794C78.7948 13.2539 79.047 13.6234 79.3779 13.8895C79.7071 14.1557 80.1151 14.2888 80.6019 14.2888Z" fill="black"/>
<path d="M89.4936 4.43412C89.0541 4.43412 88.6776 4.28704 88.3624 3.99286C88.0472 3.69869 87.8896 3.34673 87.8896 2.93524C87.8896 2.52725 88.0472 2.17704 88.3624 1.88462C88.6776 1.59045 89.0523 1.44336 89.4866 1.44336C89.9314 1.44336 90.3096 1.59045 90.6213 1.88462C90.9329 2.17879 91.0888 2.529 91.0888 2.93524C91.0888 3.34673 90.9329 3.70044 90.6213 3.99286C90.3096 4.28704 89.9331 4.43412 89.4936 4.43412ZM88.0017 16.4672V5.80693H90.9575V16.4672H88.0017Z" fill="black"/>
<path d="M96.1541 16.6687C95.4747 16.6687 94.8671 16.5497 94.3365 16.3115C93.8042 16.0734 93.3839 15.7197 93.0775 15.2504C92.7711 14.7811 92.6152 14.1945 92.6152 13.4906C92.6152 12.8988 92.7238 12.4015 92.9409 11.9987C93.1581 11.596 93.454 11.272 93.8287 11.0269C94.2034 10.7818 94.6307 10.5961 95.1087 10.4718C95.5867 10.3475 96.091 10.2582 96.6181 10.2074C97.238 10.1426 97.737 10.0813 98.117 10.0236C98.497 9.96578 98.7719 9.87823 98.9435 9.76266C99.1151 9.64709 99.2009 9.47549 99.2009 9.2496V9.20758C99.2009 8.76807 99.0625 8.42837 98.7876 8.18673C98.5127 7.94684 98.1222 7.82602 97.6179 7.82602C97.0856 7.82602 96.6619 7.94333 96.3484 8.17622C96.0333 8.40911 95.8249 8.70328 95.7233 9.05349L92.9882 8.83111C93.1265 8.18323 93.3997 7.6229 93.8077 7.14837C94.2157 6.67384 94.741 6.30787 95.3871 6.05222C96.0333 5.79482 96.7809 5.66699 97.6319 5.66699C98.2238 5.66699 98.7911 5.73703 99.3357 5.87536C99.8785 6.0137 100.364 6.22907 100.786 6.5215C101.208 6.81392 101.544 7.18689 101.789 7.64216C102.034 8.09743 102.157 8.642 102.157 9.27587V16.4656H99.3532V14.9895H99.2692C99.0976 15.3222 98.8682 15.6146 98.5828 15.8668C98.2956 16.1189 97.9506 16.315 97.5479 16.4569C97.1452 16.5987 96.6811 16.6687 96.1541 16.6687ZM96.9998 14.6288C97.4341 14.6288 97.8193 14.5412 98.152 14.3679C98.4847 14.1945 98.7456 13.9599 98.9365 13.664C99.1256 13.368 99.2201 13.0318 99.2201 12.6571V11.5259C99.1273 11.5855 99.0013 11.6398 98.8419 11.6888C98.6826 11.7378 98.5022 11.7816 98.3043 11.8201C98.1047 11.8586 97.9069 11.8937 97.7072 11.9234C97.5076 11.9532 97.3273 11.9795 97.1662 12.004C96.8195 12.0548 96.5165 12.1353 96.2574 12.2474C95.9982 12.3577 95.7969 12.5083 95.6533 12.6956C95.5097 12.883 95.4379 13.1159 95.4379 13.3925C95.4379 13.7953 95.585 14.1017 95.8792 14.3118C96.1733 14.5237 96.5463 14.6288 96.9998 14.6288Z" fill="black"/>
<path d="M107.305 10.3057V16.4693H104.35V5.80728H107.167V7.68789H107.291C107.528 7.06802 107.923 6.57598 108.479 6.21352C109.034 5.85105 109.708 5.66895 110.497 5.66895C111.238 5.66895 111.883 5.83179 112.434 6.15398C112.984 6.47792 113.413 6.9402 113.718 7.53905C114.022 8.1379 114.176 8.85232 114.176 9.68056V16.4676H111.221V10.2076C111.226 9.55449 111.06 9.04494 110.722 8.67722C110.384 8.3095 109.92 8.12564 109.326 8.12564C108.929 8.12564 108.578 8.21144 108.275 8.38305C107.972 8.55465 107.736 8.80329 107.568 9.12899C107.396 9.45468 107.311 9.84691 107.305 10.3057Z" fill="black"/>
<path d="M22.0128 0.0879093C22.4261 0.348813 22.4278 0.790073 22.4243 1.33464C22.4208 1.93175 22.4243 4.98029 22.4243 5.48459C22.4243 5.98889 22.3718 6.09395 21.8815 6.4389C21.3912 6.78386 12.5205 12.8302 12.1107 13.1208C11.701 13.4115 11.5136 13.5849 11.2615 13.5849C11.0093 13.5849 10.7712 13.4395 10.4665 13.2277C10.1601 13.0158 1.03897 6.8504 0.522414 6.42665C0.00585938 6.0029 0.00585938 5.96262 0.00585938 5.02057C0.00585938 4.07851 0.00585938 1.45371 0.00585938 1.0825C0.00585938 0.711277 0.00585938 0.354066 0.336805 0.128183C0.66775 -0.0977002 0.879625 -0.0171527 1.55727 0.432863C2.23492 0.882878 9.60502 5.90834 10.2144 6.31983C10.8237 6.73133 10.9428 6.8504 11.2352 6.8504C11.5277 6.8504 11.9251 6.49319 12.2823 6.2533C12.6396 6.0134 20.5945 0.592207 21.02 0.299784C21.4455 0.00736181 21.7344 -0.087194 22.0128 0.0879093Z" fill="black"/>
<path d="M22.1015 10.2912C22.5603 10.6081 22.4184 11.0353 22.4184 11.7147C22.4184 12.3959 22.4027 16.7612 22.4027 17.2358C22.4027 17.7103 22.513 18.2478 22.1645 18.5648C21.8161 18.8817 21.4729 18.7644 21.0579 18.4702C20.4958 18.0727 17.2056 15.5688 16.8589 15.3114C16.5105 15.054 16.1515 14.8508 16.1848 14.4253C16.218 13.9981 16.4649 13.8528 16.8134 13.6059C17.1618 13.359 20.6306 10.7202 20.9441 10.5188C21.2575 10.3157 21.676 9.99873 22.1015 10.2912Z" fill="black"/>
<path d="M0.337642 10.2912C-0.121129 10.6081 0.0207051 11.0353 0.0207051 11.7147C0.0207051 12.3959 0.0364644 16.7612 0.0364644 17.2358C0.0364644 17.7103 -0.0738506 18.2478 0.274605 18.5648C0.62306 18.8817 0.966263 18.7644 1.38126 18.4702C1.94334 18.0727 5.23353 15.5688 5.58023 15.3114C5.92869 15.054 6.28765 14.8508 6.25438 14.4253C6.22111 13.9981 5.97422 13.8528 5.62576 13.6059C5.27731 13.359 1.80851 10.7202 1.49507 10.5188C1.17989 10.3157 0.761392 9.99873 0.337642 10.2912Z" fill="black"/>
</g>
<defs>
<clipPath id="clip0_15448_126378">
<rect width="114.176" height="18.7553" fill="white"/>
</clipPath>
</defs>
</svg>
